<?xml version="1.0" encoding="UTF-8"?>
<svg xmlns="http://www.w3.org/2000/svg" viewBox="365 380 320 320" fill="currentColor">
  <path d="M508.14,522.31l-60.39,73.23-75.18-71.25,115.68-137.97h130.12l-96.78,120.32h168.05c12.12,0,23.28,19.96,14.83,30.52l-124.08,151.93-3.02,3.25h-132.94c.03-2.62,2.4-5.15,3.96-7.16,33.28-42.93,75.18-83.52,107.17-126.92,6.18-8.38,10.48-15.01,4.83-25.69,0,0-13.91-20.72-52.26-10.26Z"/>
  <path d="M676.8,673.41c0,11.19-9.08,20.27-20.27,20.27s-20.27-9.08-20.27-20.27,9.08-20.27,20.27-20.27,20.27,9.08,20.27,20.27Z"/>
</svg>
