<?xml version="1.0" encoding="UTF-8"?>
<svg id="Layer_1" xmlns="http://www.w3.org/2000/svg" version="1.1" viewBox="0 0 1080 1080">
  <!-- Generator: Adobe Illustrator 30.1.0, SVG Export Plug-In . SVG Version: 2.1.1 Build 136)  -->
  <path d="M280.02,532.81v-83.04h23.72l39.62,64.65,4.86-3.44c-5.1-8.3-6.76-12.81-6.76-24.56v-36.65h15.42v83.04h-18.74l-44.48-72.48-4.98,3.09c3.91,7.47,6.76,14.47,6.76,26.93v42.47h-15.42Z"/>
  <path d="M369.94,517.62c0-16.49,17.79-21.59,37.13-23.37v-2.02c0-5.81-3.2-9.37-10.8-9.37-8.78,0-12.57,4.74-14,9.96l-13.17-3.44c1.31-8.78,10.56-17.44,27.16-17.44s25.15,7.59,25.15,22.06v23.85c0,2.85.47,3.56,3.56,3.56h5.46v11.39h-6.05c-9.73,0-12.1-3.32-12.22-12.34h-5.1c-2.25,7.71-7.95,14.12-18.27,14.12-11.15,0-18.86-6.53-18.86-16.96ZM407.07,508.49v-4.75c-12.1,1.31-22.42,4.04-22.42,12.57,0,4.51,2.97,7.36,8.9,7.36,6.88,0,13.52-4.63,13.52-15.18Z"/>
  <path d="M457.61,532.81c-9.61,0-14.95-5.69-14.95-15.06v-32.74h-12.81v-11.27h12.81v-18.51h14.47v18.51h15.66v11.27h-15.66v30.48c0,3.8,1.66,5.58,5.46,5.58h12.57v11.74h-17.56Z"/>
  <path d="M483.7,464.48v-14.83h15.42v14.83h-15.42ZM484.3,532.81v-59.08h14.47v59.08h-14.47Z"/>
  <path d="M528.31,532.81l-21.71-59.08h15.18l9.02,27.64c2.73,8.3,3.2,13.17,3.44,22.18h5.81c.24-9.01.47-14.23,2.97-22.18l8.66-27.64h14.71l-20.64,59.08h-17.44Z"/>
  <path d="M570.19,503.27c0-18.86,12.22-31.31,28.59-31.31,18.98,0,29.42,15.3,27.52,34.87h-41.64c.47,11.98,7,16.37,14.59,16.37,8.3,0,12.22-5.69,14.35-10.68l13.05,4.87c-3.8,9.25-11.98,17.2-27.64,17.2-17.44,0-28.83-11.74-28.83-31.32ZM611.94,496.15c-.47-8.66-5.7-13.4-13.17-13.4s-12.69,4.75-13.76,13.4h26.93Z"/>
  <g>
    <path d="M363.55,605.79l14.71-5.46c2.14,8.78,8.66,17.2,21.71,17.2,11.63,0,16.84-4.98,16.84-11.74,0-5.81-4.15-9.73-14.24-11.5l-10.56-1.78c-14.71-2.49-24.32-9.37-24.32-24.2,0-13.4,11.27-24.56,31.2-24.56s29.89,10.91,32.98,21.12l-14.35,5.46c-2.26-6.76-7.47-13.76-19.1-13.76-10.56,0-14.95,5.1-14.95,11.03s4.03,8.9,11.74,10.32l10.8,1.9c15.78,2.61,26.93,10.56,26.93,24.79s-10.68,25.74-33.21,25.74c-21.23,0-32.62-11.15-36.18-24.56Z"/>
    <path d="M440.42,598.92c0-18.74,13.17-31.2,30.49-31.2,13.88,0,23.25,7.83,26.69,17.56l-13.41,4.86c-2.13-6.4-6.76-10.67-13.76-10.67-8.42,0-15.3,6.4-15.3,19.46s7,19.69,15.42,19.69c7.95,0,12.22-4.75,14.59-11.86l13.64,4.75c-4.27,11.27-14.23,18.86-28,18.86-17.79,0-30.37-12.34-30.37-31.43Z"/>
    <path d="M508.04,628.57v-83.04h14.35v14c0,12.57-3.44,18.62-6.88,23.61h6.76c2.37-7.47,8.3-15.42,18.51-15.42,13.52,0,20.28,8.78,20.28,21.94v38.91h-14.47v-36.06c0-8.9-4.15-12.69-10.68-12.69-13.29,0-13.52,14.71-13.52,21.83v26.93h-14.35Z"/>
    <path d="M571.62,599.03c0-18.86,12.22-31.31,28.59-31.31,18.98,0,29.42,15.3,27.52,34.87h-41.64c.47,11.98,7,16.37,14.59,16.37,8.3,0,12.22-5.69,14.35-10.68l13.05,4.87c-3.8,9.25-11.98,17.2-27.64,17.2-17.44,0-28.83-11.74-28.83-31.32ZM613.38,591.91c-.47-8.66-5.69-13.4-13.17-13.4s-12.69,4.75-13.76,13.4h26.93Z"/>
    <path d="M639.48,628.57v-59.08h12.69c0,3.56-2.26,8.78-4.63,12.1h6.76c1.9-7.24,6.64-13.88,16.13-13.88,7.47,0,14.12,4.74,16.13,13.88h5.1c2.49-8.07,8.78-13.88,17.08-13.88,11.27,0,19.69,7.71,19.69,22.3v38.55h-14.47v-36.06c0-9.14-4.15-12.57-10.56-12.57-12.1,0-12.34,12.57-12.34,19.45v29.18h-14.23v-36.06c0-9.14-4.27-12.57-10.68-12.57-11.98,0-12.34,12.57-12.34,19.45v29.18h-14.35Z"/>
    <path d="M739.48,613.39c0-16.49,17.79-21.59,37.13-23.37v-2.02c0-5.81-3.2-9.37-10.8-9.37-8.78,0-12.57,4.74-14,9.96l-13.17-3.44c1.31-8.78,10.56-17.44,27.16-17.44s25.15,7.59,25.15,22.06v23.85c0,2.85.47,3.56,3.56,3.56h5.46v11.39h-6.05c-9.73,0-12.1-3.32-12.22-12.34h-5.1c-2.25,7.71-7.95,14.12-18.27,14.12-11.15,0-18.86-6.53-18.86-16.96ZM776.61,604.25v-4.75c-12.1,1.31-22.42,4.04-22.42,12.57,0,4.51,2.97,7.36,8.9,7.36,6.88,0,13.52-4.63,13.52-15.18Z"/>
  </g>
</svg>